<svg xmlns="http://www.w3.org/2000/svg" xmlns:xlink="http://www.w3.org/1999/xlink" version="1.1" style="enable-background:new 0 0 490 490;" xml:space="preserve" width="490" height="490"><rect id="backgroundrect" width="100%" height="100%" x="0" y="0" fill="none" stroke="none"/>
















<g class="currentLayer" style=""><title>Layer 1</title><g id="svg_1" class="" fill-opacity="1" fill="#7c99ff" stroke="#000000" stroke-opacity="1" stroke-width="6">
	<g id="svg_2" fill="#7c99ff" stroke="#000000" stroke-opacity="1" stroke-width="6">
		<g id="svg_3" fill="#7c99ff" stroke="#000000" stroke-opacity="1" stroke-width="6">
			<path d="M344.532,0.002v61.25H0v229.686h22.969v22.969h15.312v-22.969H229.69v15.312c0,4.221-3.432,7.656-7.656,7.656H84.222     c-12.666,0-22.968,10.303-22.968,22.969v15.312H30.625v137.811h321.564V352.186H76.566v-15.312c0-4.221,3.432-7.656,7.656-7.656     h137.811c12.666,0,22.969-10.303,22.969-22.969v-15.312h122.499v22.969h15.312v-22.969h22.969v-15.312H490V0.002H344.532z      M336.876,367.498v107.187H45.937V367.498H336.876z M390.47,275.624H15.312V76.564H390.47V275.624z M474.688,260.311h-68.906     v-26.191c4.781,2.09,9.983,3.223,15.312,3.223c21.107,0,38.281-17.174,38.281-38.281c0-21.107-17.174-38.281-38.281-38.281     c-5.331,0-10.532,1.133-15.312,3.219V61.25h-45.937V15.314h114.843V260.311z M405.782,216.01v-33.893     c4.198-3.79,9.6-6.023,15.312-6.023c12.666,0,22.968,10.303,22.968,22.968c0,12.666-10.303,22.969-22.968,22.969     C415.387,222.031,409.985,219.797,405.782,216.01z" id="svg_4" fill="#7c99ff" stroke="#000000" stroke-opacity="1" stroke-width="6"/>
			<rect x="30.625" y="244.99899291992188" width="53.59700012207031" height="15.312000274658203" id="svg_5" fill="#7c99ff" stroke="#000000" stroke-opacity="1" stroke-width="6"/>
			<rect x="99.53399658203125" y="244.99899291992188" width="22.9689998626709" height="15.312000274658203" id="svg_6" fill="#7c99ff" stroke="#000000" stroke-opacity="1" stroke-width="6"/>
			<rect x="137.81500244140625" y="244.99899291992188" width="22.9689998626709" height="15.312000274658203" id="svg_7" fill="#7c99ff" stroke="#000000" stroke-opacity="1" stroke-width="6"/>
			<rect x="375.1570129394531" y="30.62700080871582" width="84.21800231933594" height="15.312000274658203" id="svg_8" fill="#7c99ff" stroke="#000000" stroke-opacity="1" stroke-width="6"/>
			<rect x="421.093994140625" y="61.25" width="38.28099822998047" height="15.312000274658203" id="svg_9" fill="#7c99ff" stroke="#000000" stroke-opacity="1" stroke-width="6"/>
			<rect x="421.093994140625" y="91.875" width="38.28099822998047" height="15.312000274658203" id="svg_10" fill="#7c99ff" stroke="#000000" stroke-opacity="1" stroke-width="6"/>
			<rect x="444.06298828125" y="122.5" width="15.312000274658203" height="15.312000274658203" id="svg_11" fill="#7c99ff" stroke="#000000" stroke-opacity="1" stroke-width="6"/>
			<rect x="176.0959930419922" y="91.875" width="38.28099822998047" height="15.312000274658203" id="svg_12" fill="#7c99ff" stroke="#000000" stroke-opacity="1" stroke-width="6"/>
			<rect x="137.81500244140625" y="444.05999755859375" width="122.4990005493164" height="15.312000274658203" id="svg_13" fill="#7c99ff" stroke="#000000" stroke-opacity="1" stroke-width="6"/>
			<rect x="107.19000244140625" y="444.05999755859375" width="15.312000274658203" height="15.312000274658203" id="svg_14" fill="#7c99ff" stroke="#000000" stroke-opacity="1" stroke-width="6"/>
			<rect x="61.249000549316406" y="444.05999755859375" width="30.628000259399414" height="15.312000274658203" id="svg_15" fill="#7c99ff" stroke="#000000" stroke-opacity="1" stroke-width="6"/>
			<rect x="61.25" y="413.43499755859375" width="38.28499984741211" height="15.312000274658203" id="svg_16" fill="#7c99ff" stroke="#000000" stroke-opacity="1" stroke-width="6"/>
			<rect x="114.84700012207031" y="413.43499755859375" width="15.312000274658203" height="15.312000274658203" id="svg_17" fill="#7c99ff" stroke="#000000" stroke-opacity="1" stroke-width="6"/>
			<rect x="145.4709930419922" y="413.43499755859375" width="15.312000274658203" height="15.312000274658203" id="svg_18" fill="#7c99ff" stroke="#000000" stroke-opacity="1" stroke-width="6"/>
			<rect x="176.0959930419922" y="413.43499755859375" width="15.312000274658203" height="15.312000274658203" id="svg_19" fill="#7c99ff" stroke="#000000" stroke-opacity="1" stroke-width="6"/>
			<rect x="206.7209930419922" y="413.43499755859375" width="15.312000274658203" height="15.312000274658203" id="svg_20" fill="#7c99ff" stroke="#000000" stroke-opacity="1" stroke-width="6"/>
			<rect x="237.3459930419922" y="413.43499755859375" width="15.312000274658203" height="15.312000274658203" id="svg_21" fill="#7c99ff" stroke="#000000" stroke-opacity="1" stroke-width="6"/>
			<rect x="267.9700012207031" y="413.43499755859375" width="15.312000274658203" height="15.312000274658203" id="svg_22" fill="#7c99ff" stroke="#000000" stroke-opacity="1" stroke-width="6"/>
			<rect x="298.5950012207031" y="413.43499755859375" width="22.9689998626709" height="15.312000274658203" id="svg_23" fill="#7c99ff" stroke="#000000" stroke-opacity="1" stroke-width="6"/>
			<rect x="61.25" y="382.8110046386719" width="15.315999984741211" height="15.312000274658203" id="svg_24" fill="#7c99ff" stroke="#000000" stroke-opacity="1" stroke-width="6"/>
			<rect x="91.87799835205078" y="382.8110046386719" width="15.312000274658203" height="15.312000274658203" id="svg_25" fill="#7c99ff" stroke="#000000" stroke-opacity="1" stroke-width="6"/>
			<rect x="122.50299835205078" y="382.8110046386719" width="15.312000274658203" height="15.312000274658203" id="svg_26" fill="#7c99ff" stroke="#000000" stroke-opacity="1" stroke-width="6"/>
			<rect x="153.1280059814453" y="382.8110046386719" width="15.312000274658203" height="15.312000274658203" id="svg_27" fill="#7c99ff" stroke="#000000" stroke-opacity="1" stroke-width="6"/>
			<rect x="183.7519989013672" y="382.8110046386719" width="15.312000274658203" height="15.312000274658203" id="svg_28" fill="#7c99ff" stroke="#000000" stroke-opacity="1" stroke-width="6"/>
			<rect x="214.3769989013672" y="382.8110046386719" width="15.312000274658203" height="15.312000274658203" id="svg_29" fill="#7c99ff" stroke="#000000" stroke-opacity="1" stroke-width="6"/>
			<rect x="245.0019989013672" y="382.8110046386719" width="15.312000274658203" height="15.312000274658203" id="svg_30" fill="#7c99ff" stroke="#000000" stroke-opacity="1" stroke-width="6"/>
			<rect x="275.62701416015625" y="382.8110046386719" width="15.312000274658203" height="15.312000274658203" id="svg_31" fill="#7c99ff" stroke="#000000" stroke-opacity="1" stroke-width="6"/>
			<rect x="306.2510070800781" y="382.8110046386719" width="15.312000274658203" height="15.312000274658203" id="svg_32" fill="#7c99ff" stroke="#000000" stroke-opacity="1" stroke-width="6"/>
			<rect x="275.62701416015625" y="444.05999755859375" width="15.312000274658203" height="15.312000274658203" id="svg_33" fill="#7c99ff" stroke="#000000" stroke-opacity="1" stroke-width="6"/>
			<rect x="306.2510070800781" y="444.05999755859375" width="15.312000274658203" height="15.312000274658203" id="svg_34" fill="#7c99ff" stroke="#000000" stroke-opacity="1" stroke-width="6"/>
			<path d="M436.407,352.186c-21.107,0-38.281,17.174-38.281,38.281v61.25c0,21.107,17.174,38.281,38.281,38.281     s38.281-17.174,38.281-38.281v-61.25C474.688,369.36,457.514,352.186,436.407,352.186z M459.375,451.716     c0,12.666-10.303,22.968-22.969,22.968s-22.969-10.303-22.969-22.968v-61.25c0-12.666,10.303-22.969,22.969-22.969     c12.666,0,22.969,10.303,22.969,22.969V451.716z" id="svg_35" fill="#7c99ff" stroke="#000000" stroke-opacity="1" stroke-width="6"/>
			<rect x="428.7510070800781" y="382.8110046386719" width="15.312000274658203" height="15.312000274658203" id="svg_36" fill="#7c99ff" stroke="#000000" stroke-opacity="1" stroke-width="6"/>
		</g>
	</g>
</g><g id="svg_37">
</g><g id="svg_38">
</g><g id="svg_39">
</g><g id="svg_40">
</g><g id="svg_41">
</g><g id="svg_42">
</g><g id="svg_43">
</g><g id="svg_44">
</g><g id="svg_45">
</g><g id="svg_46">
</g><g id="svg_47">
</g><g id="svg_48">
</g><g id="svg_49">
</g><g id="svg_50">
</g><g id="svg_51">
</g></g></svg>