<?xml version="1.0" encoding="iso-8859-1"?>
<!-- Generator: Adobe Illustrator 19.0.0, SVG Export Plug-In . SVG Version: 6.00 Build 0)  -->
<svg version="1.1" id="Layer_1" xmlns="http://www.w3.org/2000/svg" xmlns:xlink="http://www.w3.org/1999/xlink" x="0px" y="0px"
	 viewBox="0 0 512 512" style="enable-background:new 0 0 512 512;" xml:space="preserve">
<g>
	<g>
		<g>
			<path d="M362.743,165.739h-17.937V88.806C344.806,39.839,304.967,0,256,0s-88.806,39.839-88.806,88.806v76.933h-17.937
				c-39.972,0-72.491,32.52-72.491,72.491v191.529v15.208v33.914h60.362v2.197c0,17.05,13.872,30.923,30.923,30.923h175.899
				c17.051,0,30.923-13.873,30.923-30.923v-2.197h60.362v-33.914v-15.208V238.23C435.234,198.259,402.715,165.739,362.743,165.739z
				 M137.128,447.501v16.171H91.973v-18.706h45.154V447.501z M420.027,463.672h-45.154v-18.706h45.154V463.672z M420.027,429.759
				h-45.154V251.279h-15.208v178.479v7.604v41.518v2.197c0,8.665-7.049,15.715-15.715,15.715H168.051
				c-8.665,0-15.715-7.049-15.715-15.715v-2.197v-31.379v-17.743V251.279h-15.208v178.479H91.973V238.23
				c0-31.586,25.697-57.283,57.283-57.283h33.145V88.806c0-40.583,33.016-73.598,73.598-73.598s73.598,33.015,73.598,73.598v92.141
				h33.145c31.586,0,57.283,25.697,57.283,57.283V429.759z"/>
			<path d="M362.743,196.155v15.208c14.815,0,26.867,12.053,26.867,26.867h15.208C404.819,215.03,385.944,196.155,362.743,196.155z"
				/>
			<path d="M314.391,88.806h-0.001c0-32.196-26.194-58.39-58.39-58.39c-32.196,0-58.39,26.194-58.39,58.39v92.141h116.782V88.806z
				 M299.182,165.739h-86.366V88.806c0.001-23.812,19.373-43.182,43.183-43.182s43.182,19.371,43.182,43.182V165.739z"/>
			<path d="M197.61,236.121v53.336h15.208v-53.336c7.706-3.044,13.18-10.549,13.18-19.324c0-11.461-9.323-20.784-20.784-20.784
				s-20.784,9.323-20.784,20.784C184.43,225.572,189.903,233.078,197.61,236.121z M205.214,211.221c3.075,0,5.576,2.501,5.576,5.576
				c0,3.075-2.501,5.576-5.576,5.576c-3.075,0-5.576-2.501-5.576-5.576C199.637,213.722,202.139,211.221,205.214,211.221z"/>
			<path d="M286.002,216.797c0,8.775,5.474,16.28,13.18,19.324v78.345h15.208v-78.345c7.706-3.044,13.18-10.549,13.18-19.324
				c0-11.461-9.323-20.784-20.784-20.784C295.326,196.013,286.002,205.336,286.002,216.797z M312.363,216.797
				c0,3.075-2.501,5.576-5.576,5.576c-3.075,0-5.576-2.501-5.576-5.576c0-3.075,2.501-5.576,5.576-5.576
				C309.861,211.221,312.363,213.722,312.363,216.797z"/>
			<path d="M297.055,339.644v-7.604h-82.111v7.604c0,24.236-17.297,44.905-41.128,49.145l-6.273,1.116v91.679h44.86v-15.208h-29.652
				v-64.051c25.392-7.135,43.922-28.932,46.962-55.078h52.573c3.04,26.146,21.57,47.943,46.962,55.078v64.051h-96.567v15.208
				h111.776v-91.68l-6.273-1.116C314.353,384.549,297.055,363.88,297.055,339.644z"/>
		</g>
	</g>
</g>
<g>
</g>
<g>
</g>
<g>
</g>
<g>
</g>
<g>
</g>
<g>
</g>
<g>
</g>
<g>
</g>
<g>
</g>
<g>
</g>
<g>
</g>
<g>
</g>
<g>
</g>
<g>
</g>
<g>
</g>
</svg>
